<svg width="53" height="36" viewBox="0 0 53 36" fill="none" xmlns="http://www.w3.org/2000/svg">
<path d="M33 17C33 15.0737 32.1203 12.1332 30.4721 9.66645C28.8238 7.19972 26.4812 5.27713 23.7403 4.14181C20.9994 3.0065 17.9834 2.70945 15.0737 3.28823C12.1639 3.86701 9.49119 5.29562 7.3934 7.3934C5.29562 9.49119 3.86701 12.1639 3.28823 15.0737C2.70945 17.9834 3.0065 20.9994 4.14181 23.7403C5.27713 26.4812 7.19972 28.8238 9.66645 30.4721C12.1332 32.1203 15.0333 33 18 33" stroke="black" stroke-width="5" stroke-linecap="round"/>
<path d="M18 21.1424C20.1566 18.9389 22.3209 16.7156 24.7176 14.7682C24.8105 14.6928 25.5599 13.9382 25.6094 14.4578C25.6639 15.0298 26 13.3264 25.7217 16.1686C24 21.8264 24.5037 28.8273 24.5037 28.8273C24.4877 30.1513 24.4905 30.4859 24.4905 31.6676C24.4905 31.9252 24.4905 32.1386 24.4905 32.4404C24.4905 32.6571 24.313 33.0474 24.4905 32.9953C24.7855 32.9085 24.762 32.4404 24.9396 32.1894C27.5594 28.4867 39 13.3264 51 18.3264" stroke="#5CA7FF" stroke-width="3" stroke-linecap="round"/>
</svg>
